<svg width="32" height="32" viewBox="0 0 32 32" fill="none" xmlns="http://www.w3.org/2000/svg">
  <!-- Rounded square background with primary color -->
  <rect width="32" height="32" rx="8" fill="hsl(187, 85%, 53%)"/>

  <!-- CPU/Chip icon (Lucide CPU icon adapted for favicon) -->
  <g transform="translate(8, 8)" fill="hsl(217, 19%, 8%)">
    <!-- Main chip body -->
    <rect x="4" y="4" width="8" height="8" rx="1" fill="currentColor"/>

    <!-- Top pins -->
    <rect x="5" y="1" width="1" height="2" fill="currentColor"/>
    <rect x="7" y="1" width="1" height="2" fill="currentColor"/>
    <rect x="9" y="1" width="1" height="2" fill="currentColor"/>

    <!-- Bottom pins -->
    <rect x="5" y="13" width="1" height="2" fill="currentColor"/>
    <rect x="7" y="13" width="1" height="2" fill="currentColor"/>
    <rect x="9" y="13" width="1" height="2" fill="currentColor"/>

    <!-- Left pins -->
    <rect x="1" y="5" width="2" height="1" fill="currentColor"/>
    <rect x="1" y="7" width="2" height="1" fill="currentColor"/>
    <rect x="1" y="9" width="2" height="1" fill="currentColor"/>

    <!-- Right pins -->
    <rect x="13" y="5" width="2" height="1" fill="currentColor"/>
    <rect x="13" y="7" width="2" height="1" fill="currentColor"/>
    <rect x="13" y="9" width="2" height="1" fill="currentColor"/>

    <!-- Inner details -->
    <rect x="6" y="6" width="2" height="2" fill="hsl(187, 85%, 53%)"/>
  </g>
</svg>